<svg height="512" viewBox="0 0 59 51" width="512" xmlns="http://www.w3.org/2000/svg"><g id="Page-1" fill="none" fill-rule="evenodd"><g id="005---Cafe-Wifi" fill-rule="nonzero" transform="translate(-1)"><path id="Shape" d="m41 45.045c-.3559483-.0001644-.6849782-.189524-.8639459-.4972085-.1789678-.3076845-.1808926-.687308-.0050541-.9967915 1.045-1.839 3.464-3.176 7.394-4.085.381-.089.789-.177 1.215-.269 3.761-.81 8.441-1.818 9.05-6.331.274-2.032-.238-3.477-1.523-4.3-2.37-1.508-6.833-.679-9.514 1.043-.3005634.2035491-.687829.2282351-1.0118049.0644968s-.5337785-.4901842-.5481492-.8529018c-.0143706-.3627177.1689478-.7047387.4789541-.893595 3.258-2.1 8.513-3.058 11.669-1.048 1.376.875 2.914 2.671 2.431 6.25-.8 5.905-6.7 7.177-10.611 8.018-.414.09-.811.175-1.183.262-4.123.954-5.6 2.226-6.107 3.125-.1766909.315184-.5096686.510536-.871.511z" fill="#95a5a5"/><path id="Shape" d="m25 51c-22.14 0-24.2-19.17-23.99-27.83.21 5.44 10.88 9.83 23.99 9.83s23.78-4.39 23.99-9.83c.21 8.66-1.85 27.83-23.99 27.83z" fill="#bdc3c7"/><path id="Shape" d="m15 45.994c-.1503841.0000623-.2988062-.0341363-.434-.1-1.6918085-.8096127-3.2292356-1.9084517-4.543-3.247-2.2358856-2.3882615-3.85147161-5.2887621-4.705-8.447-.14667573-.5263152.15622961-1.0729238.68025985-1.2275647.52403024-.1546408 1.07516979.13994 1.23774015.6615647.76330346 2.8455321 2.21260857 5.4605304 4.221 7.616 1.1515747 1.1716992 2.4987815 2.133458 3.981 2.842.4195416.2031933.6430382.6693122.5387772 1.1236605-.1042609.4543482-.5086198.7763908-.9747772.7763395z" fill="#fff"/><path id="Shape" d="m49 23c.0016435.0369499-.0017203.0739522-.01.11.0099558.018761.0099558.041239 0 .06-.1598759 1.6051294-.9736783 3.0735906-2.25 4.06-3.82 3.41-12.12 5.77-21.74 5.77s-17.92-2.36-21.74-5.77c-1.27632173-.9864094-2.09012414-2.4548706-2.25-4.06-.00995577-.018761-.00995577-.041239 0-.06-.00827967-.0360478-.01164352-.0730501-.01-.11 0-5.52 10.75-10 24-10s24 4.48 24 10z" fill="#bdc3c7"/><path id="Shape" d="m47 25.83c.0021641.033656-.0012142.067439-.01.1.0099558.018761.0099558.041239 0 .06-.0184276.4238087-.1027724.842159-.25 1.24-3.82 3.41-12.12 5.77-21.74 5.77s-17.92-2.36-21.74-5.77c-.14722761-.397841-.23157243-.8161913-.25-1.24-.00995577-.018761-.00995577-.041239 0-.06-.00878577-.032561-.01216407-.066344-.01-.1 0-5.06 9.85-9.16 22-9.16s22 4.1 22 9.16z" fill="#a56a43"/><path id="Shape" d="m25 13c-13.25 0-24 4.48-24 10-.00164352.0369499.00172033.0739522.01.11-.00995577.018761-.00995577.041239 0 .06.15987586 1.6051294.97367827 3.0735906 2.25 4.06 3.82 3.41 12.12 5.77 21.74 5.77s17.92-2.36 21.74-5.77c1.2763217-.9864094 2.0901241-2.4548706 2.25-4.06.0099558-.018761.0099558-.041239 0-.06.0082797-.0360478.0116435-.0730501.01-.11 0-5.52-10.75-10-24-10zm21.99 9.51c.0101112.0151331.0101112.0348669 0 .05-.1579111 1.4037509-.9073369 2.6734093-2.06 3.49-3.5 2.92-11.11 4.95-19.93 4.95s-16.43-2.03-19.93-4.95c-1.15266309-.8165907-1.90208894-2.0862491-2.06-3.49-.01011123-.0151331-.01011123-.0348669 0-.05-.0082476-.0292484-.01162607-.0596546-.01-.09 0-4.74 9.85-8.59 22-8.59s22 3.85 22 8.59c.0016261.0303454-.0017524.0607516-.01.09z" fill="#ecf0f1"/><g fill="#ff5364"><path id="Shape" d="m40.547 6.453c-4.1191744-4.13112482-9.7131513-6.45297381-15.547-6.45297381s-11.4278256 2.32184899-15.547 6.45297381c-.37897221.39237889-.37355237 1.01608478.01218142 1.40181858.3857338.38573379 1.00943968.39115363 1.40181858.01218142 3.7442484-3.7559386 8.8295605-5.86698843 14.133-5.86698843s10.3887516 2.11104983 14.133 5.86698843c.2510745.25995658.6228779.3642126.9725073.27269716.3496295-.09151544.6226744-.3645604.7141899-.71418984.0915154-.34962943-.0127406-.72143285-.2726972-.97250732z"/><path id="Shape" d="m25 6c-4.2444574-.00827961-8.3158791 1.68157463-11.307 4.693-.3789722.3923789-.3735524 1.0160848.0121814 1.4018186s1.0094397.3911536 1.4018186.0121814c2.6209397-2.62914492 6.1806251-4.10687487 9.893-4.10687487s7.2720603 1.47772995 9.893 4.10687487c.3923789.3789722 1.0160848.3735524 1.4018186-.0121814s.3911536-1.0094397.0121814-1.4018186c-2.9911209-3.01142537-7.0625426-4.70127961-11.307-4.693z"/><path id="Shape" d="m25 12c-2.6511638.0030346-5.1928015 1.0578844-7.067 2.933-.3789722.3923789-.3735524 1.0160848.0121814 1.4018186s1.0094397.3911536 1.4018186.0121814c1.4974999-1.5025975 3.5316077-2.3471779 5.653-2.3471779s4.1555001.8445804 5.653 2.3471779c.3923789.3789722 1.0160848.3735524 1.4018186-.0121814s.3911536-1.0094397.0121814-1.4018186c-1.8693671-1.8823264-4.4141419-2.9384782-7.067-2.933z"/><circle id="Oval" cx="25" cy="22" r="3"/></g></g></g></svg>