<svg id="Layer_1" enable-background="new 0 0 512 512" height="512" viewBox="0 0 512 512" width="512" xmlns="http://www.w3.org/2000/svg"><g><g><g id="XMLID_208_"><g id="XMLID_209_"><g id="XMLID_210_"><g id="XMLID_211_"><g id="XMLID_212_"><g id="XMLID_213_"><g id="XMLID_214_"><g id="XMLID_215_"><g id="XMLID_216_"><g id="XMLID_217_"><g id="XMLID_218_"><g id="XMLID_219_"><g id="XMLID_220_"><g id="XMLID_221_"><circle id="XMLID_222_" cx="256" cy="256" fill="#ed2f54" r="256"/></g></g></g></g></g></g></g></g></g></g></g></g></g></g></g><path d="m512 256c0-19.926-2.278-39.319-6.585-57.935l-107.232-107.232-324.82 288.5 126.47 126.47c18.076 4.047 36.87 6.197 56.167 6.197 141.385 0 256-114.615 256-256z" fill="#a5003c"/><g><g><path d="m381 371-4.66 8.33-10.14 18.1c-8.15 14.55-23.53 23.57-40.22 23.57h-139.96c-16.69 0-32.07-9.02-40.22-23.57l-14.8-26.43z" fill="#847979"/><path d="m381 371-4.66 8.33-10.14 18.1c-8.15 14.55-23.53 23.57-40.22 23.57h-69.98v-50z" fill="#726565"/><g><path d="m378.161 149.333h-244.322c-13.426 0-24.41-10.984-24.41-24.41v-20.18c0-13.426 10.985-24.41 24.41-24.41h244.322c13.426 0 24.41 10.985 24.41 24.41v20.18c0 13.426-10.984 24.41-24.41 24.41z" fill="#fed940"/><g><g><g><g><g><path d="m402.57 104.74v20.18c0 10.14-6.27 18.89-15.12 22.56-2.86 1.19-6 1.85-9.29 1.85h-122.16v-69h122.16c13.43 0 24.41 10.99 24.41 24.41z" fill="#fdbf2d"/></g></g></g></g></g><path d="m378.161 214.625h-244.322c-13.426 0-24.41-10.985-24.41-24.41v-20.18c0-13.426 10.985-24.41 24.41-24.41h244.322c13.426 0 24.41 10.985 24.41 24.41v20.18c0 13.425-10.984 24.41-24.41 24.41z" fill="#fdbf2d"/><path d="m402.57 170.04v20.17c0 10.14-6.26 18.89-15.11 22.56-2.87 1.19-6.01 1.85-9.3 1.85h-122.16v-69h122.16c3.29 0 6.43.66 9.29 1.86 8.85 3.66 15.12 12.42 15.12 22.56z" fill="#f7a20b"/><path d="m378.161 279.917h-244.322c-13.426 0-24.41-10.985-24.41-24.41v-20.18c0-13.426 10.985-24.41 24.41-24.41h244.322c13.426 0 24.41 10.984 24.41 24.41v20.18c0 13.425-10.984 24.41-24.41 24.41z" fill="#fed940"/><path d="m402.57 235.33v20.18c0 10.14-6.27 18.89-15.12 22.56-2.86 1.19-6 1.85-9.29 1.85h-122.16v-69h122.16c3.29 0 6.43.66 9.3 1.85 8.85 3.67 15.11 12.42 15.11 22.56z" fill="#fdbf2d"/><path d="m378.161 345.208h-244.322c-13.426 0-24.41-10.985-24.41-24.41v-20.18c0-13.426 10.985-24.41 24.41-24.41h244.322c13.426 0 24.41 10.985 24.41 24.41v20.18c0 13.426-10.984 24.41-24.41 24.41z" fill="#fdbf2d"/><path d="m402.57 300.62v20.18c0 6.99-2.98 13.33-7.74 17.78-4.37 4.11-10.23 6.63-16.67 6.63h-122.16v-69h122.16c3.29 0 6.43.66 9.29 1.86 8.85 3.66 15.12 12.41 15.12 22.55z" fill="#f7a20b"/></g><path d="m235.625 176.321h40.75v365.274h-40.75z" fill="#9e9393" transform="matrix(0 1 -1 0 614.958 102.958)"/><path d="m256 338.58h182.64v40.75h-182.64z" fill="#847979"/></g><path d="m168 80.333v126.333c0 16.2 13.133 29.333 29.333 29.333 16.2 0 29.333-13.133 29.333-29.333v-12.666c0-16.2 13.133-29.333 29.333-29.333 16.2 0 29.333 13.133 29.333 29.333v77.334c0 16.2 13.133 29.333 29.333 29.333 16.2 0 29.333-13.133 29.333-29.333v-191h-175.998z" fill="#fd9827"/><path d="m344 80.33v191c0 1.66-.14 3.29-.41 4.88-.21 1.27-.5 2.51-.87 3.71-1.42 4.65-3.96 8.8-7.31 12.16-5.31 5.3-12.64 8.59-20.74 8.59-13.21 0-24.39-8.74-28.06-20.75-.37-1.2-.66-2.44-.87-3.71-.27-1.59-.41-3.22-.41-4.88v-77.33c0-8.1-3.28-15.43-8.59-20.74s-12.64-8.59-20.74-8.59v-84.34z" fill="#ef7a06"/></g></g></svg>